<svg width="14" height="14" viewBox="0 0 14 14" fill="none" xmlns="http://www.w3.org/2000/svg">
<g clip-path="url(#clip0_1459_871)">
<path d="M8.6372 5.5451V2.303H9.21296C9.36566 2.303 9.51211 2.24234 9.62008 2.13437C9.72806 2.02639 9.78872 1.87995 9.78872 1.72725C9.78872 1.57455 9.72806 1.4281 9.62008 1.32012C9.51211 1.21215 9.36566 1.15149 9.21296 1.15149H4.6069C4.4542 1.15149 4.30775 1.21215 4.19978 1.32012C4.0918 1.4281 4.03114 1.57455 4.03114 1.72725C4.03114 1.87995 4.0918 2.02639 4.19978 2.13437C4.30775 2.24234 4.4542 2.303 4.6069 2.303H5.18266V5.5451L2.17317 9.96749C1.39302 11.1144 2.21462 12.6666 3.60105 12.6666H10.2182C11.6058 12.6666 12.4268 11.1144 11.6461 9.96749L8.6372 5.54567V5.5451Z" fill="currentColor"/>
</g>
<defs>
<clipPath id="clip0_1459_871">
<rect width="13.8182" height="13.8182" fill="currentColor"/>
</clipPath>
</defs>
</svg>
