<svg width="14" height="14" viewBox="0 0 14 14" fill="none" xmlns="http://www.w3.org/2000/svg">
<g clip-path="url(#clip0_1459_867)">
<path d="M4.03072 10.3636C3.39738 10.3636 2.88496 10.8818 2.88496 11.5151C2.88496 12.1485 3.39738 12.6666 4.03072 12.6666C4.66405 12.6666 5.18223 12.1485 5.18223 11.5151C5.18223 10.8818 4.66405 10.3636 4.03072 10.3636ZM0.576172 1.72725C0.576172 2.04391 0.835263 2.30301 1.15193 2.30301H1.72769L3.80041 6.67301L3.02314 8.07785C2.60284 8.84937 3.15557 9.78785 4.03072 9.78785H10.3641C10.6807 9.78785 10.9398 9.52876 10.9398 9.2121C10.9398 8.89543 10.6807 8.63634 10.3641 8.63634H4.03072L4.66405 7.48482H8.95344C9.38526 7.48482 9.76526 7.24876 9.96102 6.89179L12.0222 3.15513C12.0708 3.06786 12.0956 2.96943 12.0945 2.86958C12.0933 2.76974 12.066 2.67193 12.0154 2.58585C11.9648 2.49977 11.8926 2.42839 11.8059 2.37879C11.7193 2.32918 11.6212 2.30305 11.5213 2.30301H3.00011L2.61435 1.47967C2.56808 1.38139 2.49477 1.29833 2.403 1.24021C2.31123 1.18209 2.2048 1.15131 2.09617 1.15149H1.15193C0.835263 1.15149 0.576172 1.41058 0.576172 1.72725ZM9.78829 10.3636C9.15496 10.3636 8.64254 10.8818 8.64254 11.5151C8.64254 12.1485 9.15496 12.6666 9.78829 12.6666C10.4216 12.6666 10.9398 12.1485 10.9398 11.5151C10.9398 10.8818 10.4216 10.3636 9.78829 10.3636Z" fill="currentColor"/>
</g>
<defs>
<clipPath id="clip0_1459_867">
<rect width="13.8182" height="13.8182" fill="currentColor"/>
</clipPath>
</defs>
</svg>
