<svg width="14" height="14" viewBox="0 0 14 14" fill="none" xmlns="http://www.w3.org/2000/svg">
<path d="M9.21295 9.78786V10.9394H1.15234V9.78786C1.15234 9.78786 1.15234 7.48483 5.18265 7.48483C9.21295 7.48483 9.21295 9.78786 9.21295 9.78786ZM7.1978 4.31816C7.1978 3.9196 7.07961 3.52999 6.85818 3.1986C6.63676 2.86721 6.32203 2.60893 5.95381 2.4564C5.58559 2.30388 5.18041 2.26397 4.78951 2.34173C4.39861 2.41948 4.03954 2.61141 3.75772 2.89323C3.4759 3.17506 3.28397 3.53412 3.20622 3.92502C3.12846 4.31593 3.16837 4.7211 3.32089 5.08933C3.47341 5.45755 3.7317 5.77227 4.06309 5.9937C4.39448 6.21513 4.78409 6.33331 5.18265 6.33331C5.7171 6.33331 6.22966 6.121 6.60757 5.74309C6.98549 5.36517 7.1978 4.85261 7.1978 4.31816ZM9.1784 7.48483C9.53235 7.75874 9.82197 8.1069 10.0269 8.50479C10.2318 8.90268 10.347 9.34064 10.3645 9.78786V10.9394H12.6675V9.78786C12.6675 9.78786 12.6675 7.69786 9.1784 7.48483ZM8.63719 2.30301C8.24089 2.3008 7.85331 2.41929 7.52598 2.64271C7.87572 3.13137 8.06377 3.71723 8.06377 4.31816C8.06377 4.91909 7.87572 5.50495 7.52598 5.99362C7.85331 6.21704 8.24089 6.33552 8.63719 6.33331C9.17164 6.33331 9.68421 6.121 10.0621 5.74309C10.44 5.36517 10.6523 4.85261 10.6523 4.31816C10.6523 3.78371 10.44 3.27115 10.0621 2.89323C9.68421 2.51532 9.17164 2.30301 8.63719 2.30301Z" fill="currentColor"/>
</svg>
