<svg width="16" height="16" viewBox="0 0 16 16" fill="none" xmlns="http://www.w3.org/2000/svg">
<g clip-path="url(#clip0_0_1390)">
<path d="M11.3348 2.00095C11.5099 1.82586 11.7178 1.68696 11.9466 1.5922C12.1753 1.49744 12.4205 1.44867 12.6682 1.44867C12.9158 1.44867 13.161 1.49744 13.3898 1.5922C13.6185 1.68696 13.8264 1.82586 14.0015 2.00095C14.1766 2.17605 14.3155 2.38392 14.4102 2.61269C14.505 2.84147 14.5538 3.08666 14.5538 3.33429C14.5538 3.58191 14.505 3.82711 14.4102 4.05588C14.3155 4.28466 14.1766 4.49252 14.0015 4.66762L5.00149 13.6676L1.33482 14.6676L2.33482 11.001L11.3348 2.00095Z" stroke="#59B17A" stroke-width="1.3" stroke-linecap="round" stroke-linejoin="round"/>
</g>
<defs>
<clipPath id="clip0_0_1390">
<rect width="16" height="16" fill="white"/>
</clipPath>
</defs>
</svg>
