<svg width="14" height="14" viewBox="0 0 14 14" fill="none" xmlns="http://www.w3.org/2000/svg">
<path fill-rule="evenodd" clip-rule="evenodd" d="M3.45384 1.15149C2.99573 1.15149 2.5564 1.33347 2.23247 1.6574C1.90854 1.98132 1.72656 2.42066 1.72656 2.87876V10.9394C1.72656 11.3975 1.90854 11.8368 2.23247 12.1607C2.5564 12.4847 2.99573 12.6666 3.45384 12.6666H6.90838C7.36648 12.6666 7.80582 12.4847 8.12975 12.1607C8.45367 11.8368 8.63565 11.3975 8.63565 10.9394V2.87876C8.63565 2.42066 8.45367 1.98132 8.12975 1.6574C7.80582 1.33347 7.36648 1.15149 6.90838 1.15149H3.45384ZM9.38011 4.19897C9.48808 4.09104 9.6345 4.0304 9.78717 4.0304C9.93984 4.0304 10.0863 4.09104 10.1942 4.19897L12.4973 6.502C12.6052 6.60997 12.6658 6.75639 12.6658 6.90906C12.6658 7.06174 12.6052 7.20815 12.4973 7.31613L10.1942 9.61916C10.0856 9.72404 9.9402 9.78207 9.78924 9.78076C9.63828 9.77944 9.49387 9.71889 9.38712 9.61214C9.28037 9.50539 9.21982 9.36098 9.21851 9.21002C9.2172 9.05906 9.27523 8.91362 9.38011 8.80503L10.7003 7.48482H5.75687C5.60417 7.48482 5.45772 7.42416 5.34974 7.31619C5.24177 7.20821 5.18111 7.06177 5.18111 6.90906C5.18111 6.75636 5.24177 6.60992 5.34974 6.50194C5.45772 6.39397 5.60417 6.33331 5.75687 6.33331H10.7003L9.38011 5.0131C9.27217 4.90512 9.21153 4.7587 9.21153 4.60603C9.21153 4.45336 9.27217 4.30694 9.38011 4.19897Z" fill="white"/>
</svg>
