<svg width="18" height="18" viewBox="0 0 18 18" fill="none" xmlns="http://www.w3.org/2000/svg">
<g clip-path="url(#clip0_20_6632)">
<path d="M11.5709 9.64286C14.7662 9.64286 17.3566 8.49159 17.3566 7.07143C17.3566 5.65127 14.7662 4.5 11.5709 4.5C8.37551 4.5 5.78516 5.65127 5.78516 7.07143C5.78516 8.49159 8.37551 9.64286 11.5709 9.64286Z" stroke="#1D1E21" stroke-width="1.5" stroke-linecap="round" stroke-linejoin="round"/>
<path d="M5.78516 7.07141V14.7857C5.78516 16.2 8.35658 17.3571 11.5709 17.3571C14.7852 17.3571 17.3566 16.2 17.3566 14.7857V7.07141" stroke="#1D1E21" stroke-width="1.5" stroke-linecap="round" stroke-linejoin="round"/>
<path d="M17.3569 10.9286C17.3569 12.3429 14.7854 13.5 11.5711 13.5C8.35686 13.5 5.78544 12.3429 5.78544 10.9286M11.4426 1.92859C9.94021 1.00143 8.19143 0.553025 6.42829 0.642876C3.22686 0.642876 0.642578 1.80002 0.642578 3.2143C0.642578 3.97288 1.38829 4.6543 2.57115 5.14288" stroke="#1D1E21" stroke-width="1.5" stroke-linecap="round" stroke-linejoin="round"/>
<path d="M2.57115 12.8572C1.38829 12.3686 0.642578 11.6872 0.642578 10.9286V3.21436" stroke="#1D1E21" stroke-width="1.5" stroke-linecap="round" stroke-linejoin="round"/>
<path d="M2.57115 8.99998C1.38829 8.51141 0.642578 7.82998 0.642578 7.07141" stroke="#1D1E21" stroke-width="1.5" stroke-linecap="round" stroke-linejoin="round"/>
</g>
<defs>
<clipPath id="clip0_20_6632">
<rect width="18" height="18" fill="white"/>
</clipPath>
</defs>
</svg>
