<svg width="18" height="18" viewBox="0 0 18 18" fill="none" xmlns="http://www.w3.org/2000/svg">
<path d="M15.75 15C15.75 13.6935 14.4975 12.5827 12.75 12.1702M11.25 15C11.25 13.3425 9.2355 12 6.75 12C4.2645 12 2.25 13.3425 2.25 15M11.25 9.75C12.0456 9.75 12.8087 9.43393 13.3713 8.87132C13.9339 8.30871 14.25 7.54565 14.25 6.75C14.25 5.95435 13.9339 5.19129 13.3713 4.62868C12.8087 4.06607 12.0456 3.75 11.25 3.75M6.75 9.75C5.95435 9.75 5.19129 9.43393 4.62868 8.87132C4.06607 8.30871 3.75 7.54565 3.75 6.75C3.75 5.95435 4.06607 5.19129 4.62868 4.62868C5.19129 4.06607 5.95435 3.75 6.75 3.75C7.54565 3.75 8.30871 4.06607 8.87132 4.62868C9.43393 5.19129 9.75 5.95435 9.75 6.75C9.75 7.54565 9.43393 8.30871 8.87132 8.87132C8.30871 9.43393 7.54565 9.75 6.75 9.75Z" stroke="#1D1E21" stroke-width="1.5" stroke-linecap="round" stroke-linejoin="round"/>
</svg>
